<svg id="phone-img" enable-background="new 0 0 512 512" viewBox="0 0 512 512" xmlns="http://www.w3.org/2000/svg"><path clip-rule="evenodd" d="m255.981 240.943c33.294 0 60.388 27.075 60.388 60.354 0 33.278-27.095 60.358-60.388 60.358-33.294 0-60.339-27.08-60.339-60.358.001-33.279 27.046-60.354 60.339-60.354zm92.833-21.497 86.883 50.146 72.336-72.376c5.099-5.059 5.299-13.187.5-18.507-64.288-71.527-156.32-112.549-252.552-112.549-96.182 0-188.264 41.022-252.552 112.544-4.749 5.324-4.549 13.453.5 18.512l72.386 72.376 86.834-50.146c4.349-2.504 6.749-6.644 6.749-11.653v-50.085c0-14.382 9.798-26.63 23.846-29.779 18.596-4.179 40.293-8.638 62.238-8.638 21.946 0 43.642 4.459 62.288 8.638 14.047 3.15 23.845 15.397 23.845 29.779v50.085c0 5.009 2.349 9.149 6.699 11.653zm107.979 188.766h-401.623l-2.2 9.968c-1.549 7.064-.05 13.507 4.45 19.156 4.549 5.639 10.498 8.504 17.747 8.504h361.631c7.249 0 13.247-2.865 17.747-8.508 4.549-5.644 6.049-12.088 4.499-19.151zm-157.52-106.915c0-23.866-19.396-43.287-43.292-43.287-23.846 0-43.292 19.421-43.292 43.287 0 23.87 19.446 43.286 43.292 43.286 23.896.001 43.292-19.415 43.292-43.286zm-218.775-10.717-21.529 100.565h394.075l-23.706-101.823-90.655-52.323c-10.618-6.128-16.835-16.954-16.835-29.206v-50.085c0-4.907-3.223-8.93-8.011-10.003-18.931-4.244-38.38-8.148-57.855-8.148-19.457 0-38.887 3.9-57.799 8.146-4.788 1.075-8.018 5.094-8.018 10.005v50.085c0 12.256-6.271 23.077-16.88 29.204z" fill-rule="evenodd"></path></svg>